<svg xmlns="http://www.w3.org/2000/svg" xmlns:xlink="http://www.w3.org/1999/xlink" width="500" zoomAndPan="magnify" viewBox="0 0 375 374.999991" height="500" preserveAspectRatio="xMidYMid meet" version="1.2"><defs><clipPath id="654fb23a38"><path d="M 81 6.664062 L 259 6.664062 L 259 184 L 81 184 Z M 81 6.664062 "/></clipPath><clipPath id="a2289f3d73"><path d="M 18 173 L 323 173 L 323 369.664062 L 18 369.664062 Z M 18 173 "/></clipPath></defs><g id="57e8b2dfa0"><g clip-rule="nonzero" clip-path="url(#654fb23a38)"><path style=" stroke:none;fill-rule:nonzero;fill:#000000;fill-opacity:1;" d="M 258.5625 95.28125 C 258.5625 96.730469 258.527344 98.179688 258.457031 99.625 C 258.386719 101.074219 258.28125 102.515625 258.136719 103.960938 C 257.996094 105.402344 257.820312 106.839844 257.605469 108.273438 C 257.394531 109.703125 257.148438 111.132812 256.863281 112.554688 C 256.582031 113.972656 256.265625 115.386719 255.914062 116.792969 C 255.5625 118.199219 255.175781 119.59375 254.757812 120.980469 C 254.335938 122.367188 253.882812 123.742188 253.398438 125.105469 C 252.910156 126.46875 252.390625 127.820312 251.835938 129.160156 C 251.28125 130.5 250.695312 131.824219 250.078125 133.132812 C 249.460938 134.441406 248.808594 135.738281 248.128906 137.015625 C 247.445312 138.292969 246.734375 139.550781 245.988281 140.796875 C 245.246094 142.039062 244.472656 143.261719 243.667969 144.464844 C 242.863281 145.671875 242.03125 146.855469 241.171875 148.019531 C 240.308594 149.183594 239.417969 150.324219 238.503906 151.445312 C 237.585938 152.5625 236.640625 153.660156 235.667969 154.734375 C 234.699219 155.808594 233.699219 156.855469 232.679688 157.882812 C 231.65625 158.90625 230.609375 159.90625 229.535156 160.878906 C 228.464844 161.851562 227.371094 162.796875 226.25 163.714844 C 225.132812 164.636719 223.992188 165.527344 222.832031 166.390625 C 221.671875 167.253906 220.488281 168.085938 219.285156 168.890625 C 218.082031 169.695312 216.859375 170.472656 215.621094 171.214844 C 214.378906 171.960938 213.121094 172.675781 211.847656 173.359375 C 210.570312 174.042969 209.277344 174.691406 207.972656 175.3125 C 206.664062 175.929688 205.34375 176.519531 204.003906 177.074219 C 202.667969 177.628906 201.320312 178.148438 199.957031 178.636719 C 198.597656 179.125 197.222656 179.578125 195.839844 180 C 194.457031 180.421875 193.0625 180.804688 191.660156 181.160156 C 190.257812 181.511719 188.84375 181.828125 187.425781 182.109375 C 186.007812 182.394531 184.582031 182.640625 183.152344 182.851562 C 181.722656 183.066406 180.285156 183.242188 178.847656 183.386719 C 177.40625 183.527344 175.964844 183.632812 174.523438 183.703125 C 173.078125 183.777344 171.632812 183.8125 170.183594 183.8125 C 168.738281 183.8125 167.292969 183.777344 165.847656 183.703125 C 164.402344 183.632812 162.960938 183.527344 161.523438 183.386719 C 160.082031 183.242188 158.648438 183.066406 157.21875 182.851562 C 155.785156 182.640625 154.363281 182.394531 152.941406 182.109375 C 151.523438 181.828125 150.113281 181.511719 148.710938 181.160156 C 147.308594 180.804688 145.914062 180.421875 144.53125 180 C 143.144531 179.578125 141.773438 179.125 140.410156 178.636719 C 139.050781 178.148438 137.699219 177.628906 136.363281 177.074219 C 135.027344 176.519531 133.707031 175.929688 132.398438 175.3125 C 131.089844 174.691406 129.800781 174.042969 128.523438 173.359375 C 127.25 172.675781 125.988281 171.960938 124.75 171.214844 C 123.507812 170.472656 122.289062 169.695312 121.085938 168.890625 C 119.882812 168.085938 118.699219 167.253906 117.539062 166.390625 C 116.375 165.527344 115.238281 164.636719 114.117188 163.714844 C 113 162.796875 111.90625 161.851562 110.832031 160.878906 C 109.761719 159.90625 108.714844 158.90625 107.691406 157.882812 C 106.667969 156.855469 105.671875 155.808594 104.699219 154.734375 C 103.730469 153.660156 102.785156 152.5625 101.867188 151.445312 C 100.949219 150.324219 100.0625 149.183594 99.199219 148.019531 C 98.335938 146.855469 97.503906 145.671875 96.703125 144.464844 C 95.898438 143.261719 95.125 142.039062 94.378906 140.796875 C 93.636719 139.550781 92.925781 138.292969 92.242188 137.015625 C 91.5625 135.738281 90.910156 134.441406 90.292969 133.132812 C 89.671875 131.824219 89.085938 130.5 88.535156 129.160156 C 87.980469 127.820312 87.460938 126.46875 86.972656 125.105469 C 86.484375 123.742188 86.03125 122.367188 85.613281 120.980469 C 85.191406 119.59375 84.808594 118.199219 84.457031 116.792969 C 84.105469 115.386719 83.789062 113.972656 83.503906 112.554688 C 83.222656 111.132812 82.976562 109.703125 82.761719 108.273438 C 82.550781 106.839844 82.375 105.402344 82.234375 103.960938 C 82.089844 102.515625 81.984375 101.074219 81.914062 99.625 C 81.84375 98.179688 81.808594 96.730469 81.808594 95.28125 C 81.808594 93.832031 81.84375 92.382812 81.914062 90.9375 C 81.984375 89.492188 82.089844 88.046875 82.234375 86.605469 C 82.375 85.164062 82.550781 83.726562 82.761719 82.292969 C 82.976562 80.859375 83.222656 79.429688 83.503906 78.011719 C 83.789062 76.589844 84.105469 75.175781 84.457031 73.769531 C 84.808594 72.363281 85.191406 70.96875 85.613281 69.582031 C 86.03125 68.195312 86.484375 66.820312 86.972656 65.457031 C 87.460938 64.09375 87.980469 62.742188 88.535156 61.402344 C 89.085938 60.0625 89.671875 58.738281 90.292969 57.429688 C 90.910156 56.121094 91.5625 54.828125 92.242188 53.546875 C 92.925781 52.269531 93.636719 51.011719 94.378906 49.769531 C 95.125 48.523438 95.898438 47.300781 96.703125 46.097656 C 97.503906 44.890625 98.335938 43.707031 99.199219 42.542969 C 100.0625 41.378906 100.949219 40.238281 101.867188 39.117188 C 102.785156 38 103.730469 36.902344 104.699219 35.828125 C 105.671875 34.753906 106.667969 33.707031 107.691406 32.679688 C 108.714844 31.65625 109.761719 30.65625 110.832031 29.683594 C 111.90625 28.710938 113 27.765625 114.117188 26.847656 C 115.238281 25.929688 116.375 25.035156 117.539062 24.171875 C 118.699219 23.308594 119.882812 22.476562 121.085938 21.671875 C 122.289062 20.867188 123.507812 20.089844 124.75 19.347656 C 125.988281 18.601562 127.25 17.886719 128.523438 17.203125 C 129.800781 16.523438 131.089844 15.871094 132.398438 15.25 C 133.707031 14.632812 135.027344 14.046875 136.363281 13.492188 C 137.699219 12.9375 139.050781 12.414062 140.410156 11.925781 C 141.773438 11.4375 143.144531 10.984375 144.53125 10.5625 C 145.914062 10.144531 147.308594 9.757812 148.710938 9.40625 C 150.113281 9.050781 151.523438 8.734375 152.941406 8.453125 C 154.363281 8.171875 155.785156 7.921875 157.21875 7.710938 C 158.648438 7.496094 160.082031 7.320312 161.523438 7.179688 C 162.960938 7.035156 164.402344 6.929688 165.847656 6.859375 C 167.292969 6.785156 168.738281 6.75 170.183594 6.75 C 171.632812 6.75 173.078125 6.785156 174.523438 6.859375 C 175.964844 6.929688 177.40625 7.035156 178.847656 7.179688 C 180.285156 7.320312 181.722656 7.496094 183.152344 7.710938 C 184.582031 7.921875 186.007812 8.171875 187.425781 8.453125 C 188.84375 8.734375 190.257812 9.050781 191.660156 9.40625 C 193.0625 9.757812 194.457031 10.144531 195.839844 10.5625 C 197.222656 10.984375 198.597656 11.4375 199.957031 11.925781 C 201.320312 12.414062 202.667969 12.9375 204.003906 13.492188 C 205.34375 14.046875 206.664062 14.632812 207.972656 15.25 C 209.277344 15.871094 210.570312 16.523438 211.847656 17.203125 C 213.121094 17.886719 214.378906 18.601562 215.621094 19.347656 C 216.859375 20.089844 218.082031 20.867188 219.285156 21.671875 C 220.488281 22.476562 221.671875 23.308594 222.832031 24.171875 C 223.992188 25.035156 225.132812 25.929688 226.25 26.847656 C 227.371094 27.765625 228.464844 28.710938 229.535156 29.683594 C 230.609375 30.65625 231.65625 31.65625 232.679688 32.679688 C 233.699219 33.707031 234.699219 34.753906 235.667969 35.828125 C 236.640625 36.902344 237.585938 38 238.503906 39.117188 C 239.417969 40.238281 240.308594 41.378906 241.171875 42.542969 C 242.03125 43.707031 242.863281 44.890625 243.667969 46.097656 C 244.472656 47.300781 245.246094 48.523438 245.988281 49.769531 C 246.734375 51.011719 247.445312 52.269531 248.128906 53.546875 C 248.808594 54.828125 249.460938 56.121094 250.078125 57.429688 C 250.695312 58.738281 251.28125 60.0625 251.835938 61.402344 C 252.390625 62.742188 252.910156 64.09375 253.398438 65.457031 C 253.882812 66.820312 254.335938 68.195312 254.757812 69.582031 C 255.175781 70.96875 255.5625 72.363281 255.914062 73.769531 C 256.265625 75.175781 256.582031 76.589844 256.863281 78.011719 C 257.148438 79.429688 257.394531 80.859375 257.605469 82.292969 C 257.820312 83.726562 257.996094 85.164062 258.136719 86.605469 C 258.28125 88.046875 258.386719 89.492188 258.457031 90.9375 C 258.527344 92.382812 258.5625 93.832031 258.5625 95.28125 Z M 258.5625 95.28125 "/></g><g clip-rule="nonzero" clip-path="url(#a2289f3d73)"><path style=" stroke:none;fill-rule:nonzero;fill:#000000;fill-opacity:1;" d="M 320.71875 279.445312 L 320.335938 277.566406 C 310.894531 231.71875 281.5625 194.289062 242.550781 173.328125 C 237.804688 177.75 232.679688 181.742188 227.195312 185.242188 C 227.15625 185.261719 227.113281 185.285156 227.074219 185.316406 C 221.65625 188.761719 215.929688 191.757812 209.914062 194.191406 C 209.71875 194.273438 209.515625 194.332031 209.3125 194.410156 C 203.386719 196.769531 197.222656 198.648438 190.839844 199.914062 C 190.582031 199.964844 190.308594 199.988281 190.046875 200.03125 C 183.601562 201.257812 176.984375 201.960938 170.191406 201.960938 C 163.402344 201.960938 156.785156 201.257812 150.339844 200.03125 C 150.074219 199.980469 149.8125 199.964844 149.546875 199.914062 C 143.15625 198.648438 136.992188 196.761719 131.058594 194.402344 C 130.863281 194.324219 130.667969 194.265625 130.476562 194.191406 C 124.457031 191.757812 118.730469 188.761719 113.304688 185.308594 C 113.265625 185.285156 113.226562 185.261719 113.191406 185.242188 C 107.703125 181.742188 102.582031 177.75 97.835938 173.328125 C 58.8125 194.289062 29.492188 231.710938 20.050781 277.566406 L 19.667969 279.445312 C 10.082031 325.972656 45.554688 369.578125 92.976562 369.578125 L 247.410156 369.578125 C 294.828125 369.578125 330.300781 325.972656 320.71875 279.445312 Z M 320.71875 279.445312 "/></g></g></svg>